<svg xmlns="http://www.w3.org/2000/svg" width="48" height="48" viewBox="0 0 48 48" fill="none">
  <path d="M19 30H29V36.3333C29 36.7015 28.7015 37 28.3333 37C27.597 37 27 37.597 27 38.3333V39H21C21 37.8954 20.1046 37 19 37V30Z" fill="#FF6153"/>
  <path d="M21 41H27C27 42.6569 25.6569 44 24 44C22.3431 44 21 42.6569 21 41Z" fill="#FF6153"/>
  <mask id="mask0_923_37105" style="mask-type:alpha" maskUnits="userSpaceOnUse" x="19" y="30" width="10" height="10">
    <path d="M19.9374 30.9374H28.0626V36.2505C28.0626 37.8036 26.8036 39.0626 25.2505 39.0626H22.7495C21.1964 39.0626 19.9374 37.8036 19.9374 36.2505V30.9374Z" fill="#EC665F" stroke="#EC665F" stroke-width="1.87476"/>
  </mask>
  <g mask="url(#mask0_923_37105)">
    <path d="M29 30H18V37.75C19.3133 35.4324 21.7714 34 24.4352 34H29V30Z" fill="#A03027"/>
  </g>
  <circle cx="24" cy="18" r="14" fill="#FF6153"/>
  <path d="M18.2259 19.1838L25.5 9L24.7665 16.3351C24.7577 16.4234 24.827 16.5 24.9157 16.5H29.5885C29.7554 16.5 29.8489 16.6923 29.7458 16.8236L21.75 27L23.2141 19.6794C23.2327 19.5866 23.1617 19.5 23.067 19.5H18.3886C18.226 19.5 18.1313 19.3161 18.2259 19.1838Z" fill="#A03027"/>
</svg>