<svg xmlns="http://www.w3.org/2000/svg" width="48" height="48" viewBox="0 0 48 48" fill="none">
  <path d="M4 17C4 15.3431 5.34315 14 7 14H41C42.6569 14 44 15.3431 44 17V24H4V17Z" fill="#FF6153"/>
  <path d="M7 24H41V37C41 38.6569 39.6569 40 38 40H10C8.34315 40 7 38.6569 7 37V24Z" fill="#FF6153"/>
  <path d="M41 24H7V27.2V32C8.05444 28.4413 11.324 26 15.0356 26H40.9993L41 24Z" fill="#A03027"/>
  <path d="M29 24L29 27C29 28.1046 28.1046 29 27 29L21 29C19.8954 29 19 28.1046 19 27L19 24L29 24Z" fill="#A03027"/>
  <path d="M18.5 14V12C18.5 10.3431 19.8431 9 21.5 9L26.5 9C28.1569 9 29.5 10.3431 29.5 12V14" stroke="#FF6153" stroke-width="2"/>
</svg>