<svg xmlns="http://www.w3.org/2000/svg" width="48" height="48" viewBox="0 0 48 48" fill="none">
  <path d="M28 28H32V43H28V28Z" fill="#FF6153"/>
  <rect x="14" y="35" width="4" height="7" fill="#A03027"/>
  <path d="M14.5903 9.63898C14.8387 8.64513 16.2433 8.62327 16.5225 9.60891L21.8366 28.3644C22.9217 32.1944 20.0446 36 16.0638 36H15.6847C11.7812 36 8.91708 32.3317 9.8638 28.5448L14.5903 9.63898Z" fill="#A03027"/>
  <path d="M36 39.5C36 38.1193 34.8807 37 33.5 37C32.1193 37 31 38.1193 31 39.5V40H36V39.5Z" fill="#FF6153"/>
  <path d="M16 40.5C16 39.1193 14.8807 38 13.5 38C12.1193 38 11 39.1193 11 40.5V41H16V40.5Z" fill="#FF6153"/>
  <path d="M24 43.5C24 42.1193 25.1193 41 26.5 41C27.8807 41 29 42.1193 29 43.5V44H24V43.5Z" fill="#FF6153"/>
  <path d="M4 42C4 39.2386 6.23858 37 9 37C11.7614 37 14 39.2386 14 42V44H5.90909C4.85473 44 4 43.1453 4 42.0909V42Z" fill="#FF6153"/>
  <path fill-rule="evenodd" clip-rule="evenodd" d="M28 29V36C28.7639 34.0903 30.2143 32.5964 32 31.7561V29H28Z" fill="#A03027"/>
  <path d="M34.3417 6.51831C33.4799 5.01355 31.8583 3.99988 30 3.99988C28.1417 3.99988 26.5202 5.01367 25.6583 6.51831C23.985 6.06384 22.1217 6.49365 20.8077 7.80762C19.4938 9.12158 19.064 10.985 19.5184 12.6583C18.0138 13.5201 17 15.1416 17 17C17 18.8583 18.0137 20.4796 19.5182 21.3416C19.0637 23.0149 19.4935 24.8784 20.8075 26.1924C22.1215 27.5063 23.9849 27.9362 25.6583 27.4817C26.5201 28.9863 28.1417 30.0001 30 30.0001C31.8583 30.0001 33.4797 28.9865 34.3416 27.4818C36.015 27.9363 37.8783 27.5065 39.1923 26.1925C40.5063 24.8785 40.936 23.015 40.4815 21.3417C41.9862 20.4799 43 18.8584 43 17C43 15.1417 41.9863 13.5204 40.4818 12.6584C40.9363 10.9851 40.5065 9.12158 39.1926 7.80762C37.8785 6.49365 36.0151 6.06384 34.3417 6.51831Z" fill="#FF6153"/>
  <path d="M13 40H44V41C44 42.6569 42.6569 44 41 44H13V40Z" fill="#FF6153"/>
</svg>