<svg width="51" height="48" viewBox="0 0 51 48" fill="none" xmlns="http://www.w3.org/2000/svg">
<path d="M26.3281 3.78711L38.8203 16.2793C40.9031 18.3621 40.9031 21.739 38.8203 23.8218L34.8134 27.8287L20.6715 13.6868L23.172 11.186C24.9315 9.42618 26.0204 7.10658 26.2501 4.62867L26.3281 3.78711Z" fill="#FF6153"/>
<rect x="20.6719" y="13.6865" width="20" height="2" transform="rotate(45 20.6719 13.6865)" fill="#A03027"/>
<path fill-rule="evenodd" clip-rule="evenodd" d="M36.9824 25.6603C38.2644 21.5589 37.1335 17.082 34.0519 14.0812L25.9795 6.22038C26.0647 5.84816 26.1301 5.47026 26.1751 5.08817L26.3282 3.78711L38.8207 16.2796C40.9035 18.3624 40.9035 21.7393 38.8207 23.8221L36.9824 25.6603Z" fill="#A03027"/>
<path d="M14.9802 19.3782L19.2578 15.1006L33.4 29.2427L29.1223 33.5203C27.9507 34.6919 26.0512 34.6919 24.8797 33.5203L24.1316 32.7723C22.776 31.4167 20.5142 31.663 19.4821 33.2785L16.1268 38.5307C14.6667 40.8163 11.4703 41.1726 9.54273 39.2646C7.59911 37.3407 7.94698 34.1096 10.2556 32.6436L15.5034 29.311C17.1245 28.2815 17.3744 26.0151 16.0165 24.6571L14.9802 23.6209C13.8086 22.4493 13.8086 20.5498 14.9802 19.3782Z" fill="#FF6153"/>
<path d="M40.551 28.2595C40.3408 27.779 39.6592 27.779 39.449 28.2595L37.9029 31.7935C37.2412 33.3058 38.3492 35 40 35C41.6508 35 42.7588 33.3058 42.0971 31.7934L40.551 28.2595Z" fill="#A03027"/>
</svg>
