<svg width="43" height="43" viewBox="0 0 43 43" fill="none" xmlns="http://www.w3.org/2000/svg">
<path d="M5.28271 19.5015H24.653C28.5432 19.5015 31.6968 22.6551 31.6968 26.5453V30.0672" stroke="#FF6153" stroke-width="10.5656"/>
<path d="M3.52197 10.6968H9.68525C11.1441 10.6968 12.3267 11.8794 12.3267 13.3382V25.6648C12.3267 27.1236 11.1441 28.3062 9.68525 28.3062H3.52197V10.6968Z" fill="#FF6153"/>
<path d="M31.2117 32.9371C31.3968 32.514 31.997 32.514 32.1821 32.9371L33.5433 36.0486C34.1259 37.3802 33.1503 38.8719 31.6969 38.8719C30.2434 38.8719 29.2678 37.3802 29.8504 36.0486L31.2117 32.9371Z" fill="#A03027"/>
<path fill-rule="evenodd" clip-rule="evenodd" d="M7.92422 4.97382L22.0117 4.97382L22.0117 7.17499H20.2508C18.3057 7.17499 16.7289 8.75178 16.7289 10.6969V15.0992H14.0875V10.6969C14.0875 8.75179 12.5107 7.17499 10.5656 7.17499H7.92422V4.97382Z" fill="#FF6153"/>
<circle cx="2.64141" cy="2.64141" r="2.64141" transform="matrix(-1 0 0 1 25.5337 3.65308)" fill="#FF6153"/>
<circle cx="2.64141" cy="2.64141" r="2.64141" transform="matrix(-1 0 0 1 10.5654 3.65308)" fill="#FF6153"/>
<path d="M12.3267 14.2188L12.3267 24.7844L21.1313 24.7844L20.7185 24.5931C16.6773 22.7214 14.091 18.6732 14.091 14.2197L12.3267 14.2188Z" fill="#A03027"/>
</svg>
