<svg xmlns="http://www.w3.org/2000/svg" width="48" height="48" viewBox="0 0 48 48" fill="none">
  <rect x="12.6567" y="6.99998" width="40" height="8" transform="rotate(45 12.6567 6.99998)" fill="#FF6153"/>
  <path fill-rule="evenodd" clip-rule="evenodd" d="M16.8993 11.2426L15.4851 9.82841L11.2425 14.0711L12.6567 15.4853L16.8993 11.2426ZM20.6569 15.0002L22.5562 16.8995L23.9704 18.3137L24.0851 18.4284L18.4282 24.0852L15 20.657L20.6569 15.0002ZM26.0917 20.435L27.5059 21.8492L24.6775 24.6777L23.2633 23.2634L26.0917 20.435ZM30.9903 25.3704L28.6199 23L22.9999 28.62L25.3703 30.9904L30.9903 25.3704ZM33.1628 27.5061L34.577 28.9203L31.7486 31.7487L30.3343 30.3345L33.1628 27.5061ZM38.1125 32.4558L36.6983 31.0416L32.4557 35.2843L33.8699 36.6985L38.1125 32.4558Z" fill="#A03027"/>
  <path d="M30.644 8.36953C31.7751 7.23902 33.5943 7.19461 34.7793 8.26856L37.6651 10.884C38.9357 12.0355 38.9843 14.0157 37.7718 15.2282L15 38L8 38L7.99998 31.0001L30.644 8.36953Z" fill="#FF6153"/>
  <path fill-rule="evenodd" clip-rule="evenodd" d="M30.6957 8.31902C30.6783 8.33559 30.6611 8.35241 30.644 8.36947L9.8938 29.1073L11.2719 30.4854L32.067 9.69033L30.6957 8.31902ZM38.0804 14.8671L36.728 13.5146L15.5148 34.7278L16.8934 36.1065L37.7718 15.2282C37.8858 15.1142 37.9887 14.9934 38.0804 14.8671ZM35.3136 12.1005L33.8994 10.6863L12.6862 31.8995L14.1004 33.3137L35.3136 12.1005Z" fill="#A03027"/>
  <path d="M8 38V32L14 38H8Z" fill="#A03027"/>
  <path fill-rule="evenodd" clip-rule="evenodd" d="M37.2562 15.7439L30.2628 8.7505L30.644 8.36954C31.7752 7.23903 33.5943 7.19462 34.7793 8.26857L37.6651 10.884C38.9357 12.0355 38.9843 14.0158 37.7719 15.2282L37.2562 15.7439Z" fill="#A03027"/>
</svg>